# xmcd
#
# Track frame offsets:
#	182
#	12285
#	27062
#	37532
#	47262
#	61755
#	73965
#	86617
#	95747
#	107045
#	120477
#	137402
#	148837
#
# Disc length: 2157
#
# Revision: 2
# Processed by: cddbd v1.5.1PL0 Copyright (c) Steve Scherf et al.
# Submitted via: CDex 1.40Beta9
# Normalized: r0:TDELIM( - ),TSWAP
#
DISCID=a1086b0d
DTITLE=Country - Classics
DYEAR=1900
DGENRE=Country
TTITLE0=Kenny Rogers - Me And Bobby McGee
TTITLE1=Willie Nelson - Sweet Memories
TTITLE2=Jerry Reed - Amos Moses
TTITLE3=Waylon Jennings - The Dukes of Hazard [Good Ol'Boys]
TTITLE4=Don Williams - Amanda
TTITLE5=Dolly Parton - Jolene
TTITLE6=Jerry Reed - East Bound And Down
TTITLE7=Charley Pride - Honky Tonk Blues
TTITLE8=Don Gibson - Oh! Lonesome Me
TTITLE9=Jim Reeves - Danny Boy
TTITLE10=Ronnie Milsap - Smoky Mountain Rain
TTITLE11=Jim Ed Brown and Helen Cornelius - Fools
TTITLE12=Dolly Parton - I Will Always Love You
EXTD=ID3G: 2
EXTT0=
EXTT1=
EXTT2=
EXTT3=
EXTT4=
EXTT5=
EXTT6=
EXTT7=
EXTT8=
EXTT9=
EXTT10=
EXTT11=
EXTT12=
PLAYORDER=
